<svg xmlns="http://www.w3.org/2000/svg" viewBox="0 0 24 24"><path fill="#fff" fill-rule="evenodd" d="M21.46 10.38 L21.46 13.62 L19.22 13.63 L18.26 15.95 L19.84 17.54 L17.54 19.84 L15.95 18.26 L13.63 19.22 L13.62 21.46 L10.38 21.46 L10.37 19.22 L8.05 18.26 L6.46 19.84 L4.16 17.54 L5.74 15.95 L4.78 13.63 L2.54 13.62 L2.54 10.38 L4.78 10.37 L5.74 8.05 L4.16 6.46 L6.46 4.16 L8.05 5.74 L10.37 4.78 L10.38 2.54 L13.62 2.54 L13.63 4.78 L15.95 5.74 L17.54 4.16 L19.84 6.46 L18.26 8.05 L19.22 10.37 Z M12 8.6 A3.4 3.4 0 1 0 12.001 8.6 Z"/></svg>
